<?xml version="1.0" encoding="utf-8"?>
<!-- Generator: Adobe Illustrator 27.5.0, SVG Export Plug-In . SVG Version: 6.00 Build 0)  -->
<svg version="1.1" xmlns="http://www.w3.org/2000/svg" xmlns:xlink="http://www.w3.org/1999/xlink" x="0px" y="0px"
	 viewBox="0 0 500 500" style="enable-background:new 0 0 500 500;" xml:space="preserve">
<g id="BACKGROUND">
	<rect style="fill:#FFFFFF;" width="500" height="500"/>
	<g>
		<path style="fill:#e0e7ff;" d="M152.526,448.69c0,0-31.901-3.602-36.713-43.146S40,343.377,37,284.189
			s22.367-83.495,46.684-93.342s21.09-60.861,20.703-104.354s34.834-85.726,88.837-63.716C247.227,44.786,250,111.5,278,119
			s58-51.397,111-42.199s88,41.015,76,91.107s-57,74.459-40,122.275s37.927,53.614,37,91.105
			C461.5,401.5,502.052,466.38,152.526,448.69z"/>
		<path style="fill:#e0e7ff;" d="M77.373,107c0,0,5.016,14.5,4.322,37C81,166.5,60.5,189.785,45,193.392
			C29.5,197,25.515,167,36.757,157.5S45,132,46,112.5S73.68,87.905,77.373,107z"/>
		<path style="fill:#e0e7ff;" d="M443,242c0,0-12.5,20.519-6.5,39.259c6,18.741,30.5,23.118,34.5,2.929S467.5,217.5,443,242z"/>
	</g>
</g>
<g id="OBJECTS">
	<g>
		<ellipse style="fill:#bfdbfe;" cx="253.25" cy="454.624" rx="230.25" ry="8.17"/>
		<path style="fill:#818cf8;" d="M171.83,73.598c-0.076-1.099-0.128-2.203-0.128-3.321c0-26.233,21.266-47.5,47.5-47.5
			s47.5,21.266,47.5,47.5c0,1.118-0.052,2.223-0.128,3.321h91.403v377.561h-282V73.598H171.83z"/>
		
			<rect x="93.308" y="92.96" transform="matrix(-1 -1.224647e-16 1.224647e-16 -1 433.9521 523.8198)" style="fill:#FFFFFF;" width="247.335" height="337.9"/>
		<path style="fill:#bfdbfe;" d="M170.883,79.849v21.605h96.186V79.849h-29.364c-1.052-4.679-9.031-8.318-18.729-8.318
			c-9.697,0-17.676,3.639-18.729,8.318H170.883z M216.751,76.801c0-1.229,0.996-2.225,2.225-2.225s2.225,0.996,2.225,2.225
			c0,1.229-0.996,2.225-2.225,2.225S216.751,78.03,216.751,76.801z"/>
		<path style="fill:none;stroke:#e0e7ff;strokeWidth:2.2215;strokeMiterlimit:10;" d="M278.11,210.184h28.056
			c3.927,0,7.11-3.183,7.11-7.11v-28.056c0-3.927-3.183-7.11-7.11-7.11H278.11c-3.927,0-7.11,3.183-7.11,7.11v28.056
			C271,207.001,274.183,210.184,278.11,210.184z"/>
		
			<polyline style="fill:none;stroke:#818cf8;strokeWidth:2.851;strokeLinecap:round;strokeLinejoin:round;strokeMiterlimit:10;" points="
			276.836,186.283 291.447,199.251 326.371,172.606 		"/>
		<path style="fill:none;stroke:#e0e7ff;strokeWidth:2.2215;strokeMiterlimit:10;" d="M278.11,302.397h28.056
			c3.927,0,7.11-3.183,7.11-7.11v-28.056c0-3.927-3.183-7.11-7.11-7.11H278.11c-3.927,0-7.11,3.183-7.11,7.11v28.056
			C271,299.214,274.183,302.397,278.11,302.397z"/>
		
			<polyline style="fill:none;stroke:#818cf8;strokeWidth:2.851;strokeLinecap:round;strokeLinejoin:round;strokeMiterlimit:10;" points="
			276.836,278.496 291.447,291.464 326.371,264.819 		"/>
		<path style="fill:none;stroke:#e0e7ff;strokeWidth:2.2215;strokeMiterlimit:10;" d="M278.11,405.544h28.056
			c3.927,0,7.11-3.183,7.11-7.11v-28.056c0-3.927-3.183-7.11-7.11-7.11H278.11c-3.927,0-7.11,3.183-7.11,7.11v28.056
			C271,402.361,274.183,405.544,278.11,405.544z"/>
		
			<polyline style="fill:none;stroke:#818cf8;strokeWidth:2.851;strokeLinecap:round;strokeLinejoin:round;strokeMiterlimit:10;" points="
			276.836,381.643 291.447,394.611 326.371,367.966 		"/>
		<path style="fill:#e0e7ff;" d="M126.152,178.464h132.532c0.636,0,1.152-0.516,1.152-1.152v-3.555c0-0.636-0.516-1.152-1.152-1.152
			H126.152c-0.636,0-1.152,0.516-1.152,1.152v3.555C125,177.948,125.516,178.464,126.152,178.464z"/>
		<path style="fill:#e0e7ff;" d="M150.71,132.359h132.532c0.636,0,1.152-0.516,1.152-1.152v-3.554c0-0.636-0.516-1.152-1.152-1.152
			H150.71c-0.636,0-1.152,0.516-1.152,1.152v3.554C149.558,131.843,150.074,132.359,150.71,132.359z"/>
		<path style="fill:#e0e7ff;" d="M126.152,188.857h132.532c0.636,0,1.152-0.516,1.152-1.152v-3.555c0-0.636-0.516-1.152-1.152-1.152
			H126.152c-0.636,0-1.152,0.516-1.152,1.152v3.555C125,188.342,125.516,188.857,126.152,188.857z"/>
		<path style="fill:#e0e7ff;" d="M172.137,199.251h86.255c0.798,0,1.444-0.647,1.444-1.444v-2.97c0-0.798-0.647-1.444-1.444-1.444
			h-86.255c-0.798,0-1.444,0.647-1.444,1.444v2.97C170.692,198.604,171.339,199.251,172.137,199.251z"/>
		<path style="fill:#e0e7ff;" d="M126.152,273.795h132.532c0.636,0,1.152-0.516,1.152-1.152v-3.555c0-0.636-0.516-1.152-1.152-1.152
			H126.152c-0.636,0-1.152,0.516-1.152,1.152v3.555C125,273.28,125.516,273.795,126.152,273.795z"/>
		<path style="fill:#e0e7ff;" d="M126.152,284.189h132.532c0.636,0,1.152-0.516,1.152-1.152v-3.555c0-0.636-0.516-1.152-1.152-1.152
			H126.152c-0.636,0-1.152,0.516-1.152,1.152v3.555C125,283.673,125.516,284.189,126.152,284.189z"/>
		<path style="fill:#e0e7ff;" d="M172.137,294.582h86.255c0.798,0,1.444-0.647,1.444-1.444v-2.97c0-0.798-0.647-1.444-1.444-1.444
			h-86.255c-0.798,0-1.444,0.647-1.444,1.444v2.97C170.692,293.935,171.339,294.582,172.137,294.582z"/>
		<path style="fill:#e0e7ff;" d="M126.152,376.942h132.532c0.636,0,1.152-0.516,1.152-1.152v-3.555c0-0.636-0.516-1.152-1.152-1.152
			H126.152c-0.636,0-1.152,0.516-1.152,1.152v3.555C125,376.426,125.516,376.942,126.152,376.942z"/>
		<path style="fill:#e0e7ff;" d="M126.152,387.335h132.532c0.636,0,1.152-0.516,1.152-1.152v-3.555c0-0.636-0.516-1.152-1.152-1.152
			H126.152c-0.636,0-1.152,0.516-1.152,1.152v3.555C125,386.819,125.516,387.335,126.152,387.335z"/>
		<path style="fill:#e0e7ff;" d="M172.137,397.728h86.255c0.798,0,1.444-0.647,1.444-1.444v-2.97c0-0.798-0.647-1.444-1.444-1.444
			h-86.255c-0.798,0-1.444,0.647-1.444,1.444v2.97C170.692,397.082,171.339,397.728,172.137,397.728z"/>
	</g>
	<g>
		<path style="fill:#E5B389;" d="M381.378,113.947c0,0-1.523,6.743-2.175,12.833c-0.652,6.09-4.133,14.573-3.045,20.664
			c1.087,6.09,5.003,13.921,11.093,15.878c6.09,1.958,13.486,1.958,18.053-1.305c4.568-3.263,6.96-8.266,6.96-8.266
			s7.831-3.045,5.873-11.311s-8.483-4.568-8.918-0.87c-0.435,3.698-0.653,5.438-0.653,5.438l-2.393-0.87l1.74-10.441
			c0,0-6.308-0.653-2.175-19.141c0,0-3.915-0.653-6.09-2.61c0,0-6.96,1.522-11.746,0
			C383.119,112.424,381.378,113.947,381.378,113.947z"/>
		<path style="fill:#818cf8;" d="M417.05,107.204c0,0-3.045-10.876-16.313-10.658c-13.268,0.217-14.356,3.912-19.141,5.327
			c-4.785,1.415-13.703,6.853-11.746,13.814c1.305,3.263,3.263,1.522,3.263,1.522s-1.305,6.308,1.74,6.743
			c3.045,0.435,4.9-1.321,4.9-1.321l0,0c0.715-4.647,1.625-8.685,1.625-8.685s1.74-1.523,6.525,0c4.785,1.522,11.746,0,11.746,0
			c2.175,1.958,6.09,2.61,6.09,2.61c-4.133,18.489,2.175,19.141,2.175,19.141l-1.74,10.441l2.393,0.87c0,0,0.217-1.74,0.653-5.438
			c0.435-3.698,6.96-7.395,8.918,0.87s-5.873,11.311-5.873,11.311s-0.528,1.096-1.55,2.592c0,0,7.858,0.888,15.036-11.727
			C432.929,132,439.237,107.856,417.05,107.204z"/>
		<path style="fill:none;stroke:#bfdbfe;strokeWidth:0.8701;strokeLinecap:round;strokeMiterlimit:10;" d="M399.649,113.947
			c0,0,3.263-0.653,5.22-3.045"/>
		<path style="fill:none;stroke:#bfdbfe;strokeWidth:0.8701;strokeLinecap:round;strokeMiterlimit:10;" d="M405.74,116.557
			c0,0,3.045,1.958,6.09,0"/>
		<path style="fill:#bfdbfe;" d="M350.564,202.257c0,0,7.83-20.706,12.471-22.824c4.64-2.118,23.16-7.773,23.16-7.773l16.065,1.305
			c0,0,25.033,5.22,30.171,9.281c5.138,4.06,15.579,37.122,15.579,37.122s-10.441,7.83-22.331,6.38l-1.16,36.542
			c0,0-12.326-0.87-18.779,4.06c-6.453,4.93-17.764,16.241-42.415,4.64c0,0,3.77-20.591,4.06-30.452
			c0.29-9.86-0.87-23.781-0.87-23.781l-1.45,3.77C365.065,220.528,352.884,218.208,350.564,202.257z"/>
		<path style="fill:#E5B389;" d="M386.194,162.913v8.747l-1.553,0.87c0,0-1.595,6.235,3.335,6.815c4.93,0.58,9.861-1.74,14.283-6.38
			v-9.378C402.26,163.587,396.448,166.492,386.194,162.913z"/>
		<path style="fill:#818cf8;" d="M429.449,357.996c0.435-10.441-4.93-95.706-4.93-95.706s-12.326-0.87-18.779,4.06
			c-6.453,4.93-17.764,16.241-42.415,4.64c0,0-10.876,72.214-12.761,83.96c-1.885,11.746-13.776,78.74-13.776,78.74
			c15.226,5.22,26.971,1.353,26.971,1.353l26.102-114.895c5.655,25.667,16.531,113.542,16.531,113.542
			c12.181,3.045,25.667,0,25.667,0S429.014,368.436,429.449,357.996z"/>
		<path style="fill:#bfdbfe;" d="M341.055,441.787c0,0-7.755,3.445-15.78,5.902c-8.024,2.456-13.061,3.08-14.161,5.993
			s11.651,4.4,33.487,2.57c4.605-0.571,7.356,0.403,7.806,0.494c0.449,0.09,8.184,0.008,8.184,0.008s0.331-6.762-1.249-10.073
			c-1.579-3.311-2.46-4.517-2.46-4.517S349.701,447.875,341.055,441.787z"/>
		<path style="fill:#E5B389;" d="M341.055,441.787l1.19-6.557c0,0,7.65,1.921,15.77,0.784l-1.133,6.149
			C356.883,442.163,351.413,448.145,341.055,441.787z"/>
		<path style="fill:#bfdbfe;" d="M413.088,443.266c0,0-1.975,7.221-0.521,11.145c1.454,3.924,33.659,2.266,33.595,1.69
			c-0.064-0.577,0.981-5.652-5.872-6.938c-6.853-1.286-10.684-2.561-12.088-7.375C426.984,437.605,413.577,441.089,413.088,443.266z
			"/>
		<path style="fill:#E5B389;" d="M413.42,442.75l-0.783-7.994c0,0,9.896,0.42,13.985-0.149l0.451,5.874
			C427.073,440.481,421.463,437.89,413.42,442.75z"/>
		<path style="fill:#E5B389;" d="M425.678,225.748l1.16,3.48c0,0-5.438,11.311-7.831,19.576c-2.393,8.265-4.35,18.054-5.655,20.881
			c-1.305,2.828-6.594,4.298-6.594,4.298s3.993,13.516,14.429,17.659c0,0,1.565-11.289,4.043-17.82
			c2.478-6.531,21.184-36.33,23.794-43.943c1.305-4.133-2.301-9.644-2.301-9.644S438.004,226.401,425.678,225.748z"/>
		<path style="fill:#E5B389;" d="M350.781,203.549l-4.422,7.408c0,0-4.568-15.226-9.57-23.926
			c-4.203-7.31-5.332-11.536-5.587-12.705c0.005-0.017,0.986-3.084,3.264-4.223c2.285-1.142,1.777-3.427,3.808-8.124
			c2.031-4.697,3.935-6.981,1.904-7.235c-2.031-0.254-5.712,3.554-6.6,5.712c-0.889,2.158-9.774,2.792-12.313-0.635
			c-2.539-3.427-2.158-9.774-3.554-12.313c-1.396-2.539-2.919,1.142-2.919,3.427c0,2.285,0,6.093,0,6.093s-1.387-5.613-3.291-8.278
			s-2.324,0.625-1.5,4.875c0.778,4.013,1.954,9.415,6.668,13.395c3.15,2.659,4.447,7.388,4.898,9.57l-0.004,0.001
			c0,0,0.076,0.424,0.208,1.161l0,0l0,0c0.837,4.648,4.034,22.207,6.099,31.03c2.393,10.223,10.658,28.929,19.141,30.669
			c8.483,1.74,18.053-18.924,18.053-18.924S354.333,218.98,350.781,203.549z"/>
		<path style="fill:none;stroke:#818cf8;strokeWidth:0.7613;strokeLinecap:round;strokeMiterlimit:10;" d="M366.515,216.758
			c0,0-0.87-10.441-1.45-17.401"/>
		<path style="fill:none;stroke:#818cf8;strokeWidth:0.7613;strokeLinecap:round;strokeMiterlimit:10;" d="M425.678,225.748
			h-2.465c0,0-6.815-13.196-8.845-23.781"/>
		<path style="fill:none;stroke:#bfdbfe;strokeWidth:0.8701;strokeLinecap:round;strokeMiterlimit:10;" d="M389.861,320.148
			c0,0-1.305-11.746-3.915-20.664"/>
		<path style="fill:none;stroke:#bfdbfe;strokeWidth:0.8701;strokeLinecap:round;strokeMiterlimit:10;" d="M405.522,269.686
			c0,0,3.915,19.794,19.141,23.056"/>
	</g>
</g>
</svg>
